<svg xmlns="http://www.w3.org/2000/svg" viewBox="0 0 1069.25 203.88"><defs><style>.cls-1{fill:none;}.cls-2{fill:#fff;}.cls-3{fill:#f8b916;}</style></defs><g id="Layer_2" data-name="Layer 2"><g id="Layer_1-2" data-name="Layer 1"><path class="cls-1" d="M750.68,84.94H716.51A2.62,2.62,0,0,0,714,86.66l-19.4,45.66q-.66,1.71,1,1.71h34.18a2.39,2.39,0,0,0,2.38-1.71l19.4-45.66C752.13,85.52,751.83,84.94,750.68,84.94Z"/><path class="cls-1" d="M853.75,84.94H819.57l-8.05,19H845.7a2.38,2.38,0,0,0,2.37-1.71l6.6-15.57C855.2,85.52,854.89,84.94,853.75,84.94Z"/><path class="cls-1" d="M652.9,84.94H619.77l-9.76,23h33.12a2.54,2.54,0,0,0,2.38-1.71l8.31-19.53A1.47,1.47,0,0,0,654,86,.94.94,0,0,0,652.9,84.94Z"/><path class="cls-2" d="M95.3,64.56q-3.63-6.27-12.73-6.27H45.09c-1.15,0-1.5-.57-1.06-1.72L48.52,46A2.63,2.63,0,0,1,51,44.3H82.57c1.14,0,1.45.58.92,1.72l-2.24,5.41h25.86L110.67,43q3.84-9.1.27-15.37T98.27,21.34H52.21a25.87,25.87,0,0,0-16.76,6.27A39.24,39.24,0,0,0,24,43l-6.2,14.78q-4,9.1-.33,15.38t12.74,6.27H67.65c1.15,0,1.45.57.93,1.71L64.09,91.68a2.38,2.38,0,0,1-2.37,1.71H30.18c-1.15,0-1.5-.57-1.06-1.71l2.37-5.41H5.63L2.07,94.71q-4,9.11-.33,15.38t12.73,6.27H61.19a24.37,24.37,0,0,0,16.36-6.27A42.32,42.32,0,0,0,88.77,94.71L95,79.93Q98.93,70.82,95.3,64.56Z"/><polygon class="cls-2" points="130.6 93.39 161.22 21.34 135.35 21.34 94.97 116.36 165.31 116.36 175.07 93.39 130.6 93.39"/><polygon class="cls-2" points="213.74 21.34 173.36 116.36 199.22 116.36 239.6 21.34 213.74 21.34"/><path class="cls-2" d="M288.3,92.34a1.45,1.45,0,0,1-1.45,1H252c-1.15,0-1.5-.57-1.06-1.71L270.35,46a2.64,2.64,0,0,1,2.51-1.72H307.7c.7,0,.88.35.53,1.06l-4.09,9.9H330L339,34q2.25-5.28.14-9c-1.41-2.46-3.88-3.69-7.39-3.69h-59a23.41,23.41,0,0,0-16.1,6.27A42.26,42.26,0,0,0,245.81,43L223.9,94.71q-4,9.11-.33,15.38t12.73,6.27h55a18.29,18.29,0,0,0,10.56-3.7,20.82,20.82,0,0,0,7.52-9l9-21.25H292.52Z"/><polygon class="cls-2" points="460.23 119.12 468.41 99.86 421.03 99.86 427.37 84.94 480.68 84.94 490.45 61.98 411.27 61.98 402.52 82.57 402.52 157 450.07 157 459.83 134.03 406.52 134.03 412.85 119.12 460.23 119.12"/><polygon class="cls-2" points="402.52 26.17 375 46.55 385.69 21.34 359.82 21.34 319.44 116.36 345.31 116.36 361.41 78.35 367.21 74.13 372.23 116.36 388.16 116.36 401.79 116.36 398.32 92.45 392.95 55.52 402.52 48.54 402.52 26.17"/><path class="cls-2" d="M563.62,105.2q-3.63-6.27-12.73-6.27H513.41c-1.14,0-1.5-.57-1.06-1.71l4.49-10.56a2.63,2.63,0,0,1,2.51-1.72h31.54c1.14,0,1.45.58.92,1.72l-2.24,5.41h25.86L579,83.62q3.82-9.11.26-15.37T566.59,62H520.53a25.85,25.85,0,0,0-16.75,6.27,39.17,39.17,0,0,0-11.49,15.37l-6.2,14.78q-4,9.1-.33,15.38T498.5,120H536c1.14,0,1.45.58.92,1.72l-4.49,10.56A2.38,2.38,0,0,1,530,134H498.5c-1.15,0-1.5-.57-1.06-1.71l2.38-5.41H474l-3.56,8.44q-4,9.1-.33,15.38T482.79,157h46.72a24.37,24.37,0,0,0,16.36-6.27,42.32,42.32,0,0,0,11.22-15.38l6.2-14.78Q567.25,111.47,563.62,105.2Z"/><path class="cls-2" d="M681,83.62a20.6,20.6,0,0,0,1.84-8.31,12.88,12.88,0,0,0-3.76-9.63Q675.34,62,668.6,62H603.67l-40.38,95h25.87l11.48-27.19h41.7a25.73,25.73,0,0,0,16.76-6.33,40.08,40.08,0,0,0,11.48-15.31Zm-27.19,3-8.31,19.53a2.54,2.54,0,0,1-2.38,1.71H610l9.76-23H652.9A.94.94,0,0,1,654,86,1.47,1.47,0,0,1,653.82,86.66Z"/><path class="cls-2" d="M779.06,68.25Q775.49,62,766.39,62h-48.7a25.87,25.87,0,0,0-16.76,6.27,39.24,39.24,0,0,0-11.48,15.37l-21.91,51.73c-2.63,6.07-2.75,11.2-.32,15.38S673.88,157,680,157h48.7a25.61,25.61,0,0,0,16.69-6.27,40.62,40.62,0,0,0,11.54-15.38l21.91-51.73Q782.62,74.51,779.06,68.25ZM751.61,86.66l-19.4,45.66a2.39,2.39,0,0,1-2.38,1.71H695.65q-1.71,0-1-1.71L714,86.66a2.62,2.62,0,0,1,2.51-1.72h34.17C751.83,84.94,752.13,85.52,751.61,86.66Z"/><path class="cls-2" d="M869.45,62h-66l-40.38,95H789l13.2-31.15h12.53l9,31.15h29.69l-11.48-31.15h.53q11.22,0,19.07-6.4a40.08,40.08,0,0,0,11.68-15.24l8.71-20.59q3.82-9,.26-15.31T869.45,62ZM854.67,86.66l-6.6,15.57a2.38,2.38,0,0,1-2.37,1.71H811.52l8.05-19h34.18C854.89,84.94,855.2,85.52,854.67,86.66Z"/><polygon class="cls-2" points="984.79 61.98 895.05 61.98 885.29 84.94 917.22 84.94 886.61 157 912.47 157 943.09 84.94 975.02 84.94 984.79 61.98"/><path class="cls-2" d="M1067.53,68.25Q1064,62,1054.86,62h-46a25.87,25.87,0,0,0-16.76,6.27,39.15,39.15,0,0,0-11.48,15.37L974.36,98.4q-4,9.1-.33,15.38T986.77,120h37.48c1.14,0,1.45.58.92,1.72l-4.49,10.56a2.38,2.38,0,0,1-2.37,1.71H986.77c-1.15,0-1.5-.57-1.06-1.71l2.38-5.41H962.22l-3.56,8.44q-4,9.1-.33,15.38T971.07,157h46.71a24.41,24.41,0,0,0,16.37-6.27,42.42,42.42,0,0,0,11.21-15.38l6.2-14.78q4-9.1.33-15.37t-12.73-6.27h-37.48c-1.14,0-1.5-.57-1.06-1.71l4.49-10.56a2.63,2.63,0,0,1,2.51-1.72h31.54c1.14,0,1.45.58.92,1.72l-2.24,5.41h25.86l3.57-8.45Q1071.09,74.51,1067.53,68.25Z"/><path class="cls-2" d="M744.79,203.88,753.25,184h13.11a2.79,2.79,0,0,1,2.65,1.31,3.56,3.56,0,0,1,0,3.23l-4.59,10.84a8.65,8.65,0,0,1-2.42,3.22,5.4,5.4,0,0,1-3.5,1.31Zm18.47-14.74c.11-.24,0-.36-.19-.36h-6.45l-4.36,10.29h6.44a.51.51,0,0,0,.5-.36Z"/><path class="cls-2" d="M772.11,188.51Q774,184,777.2,184h10.92a2.79,2.79,0,0,1,2.65,1.31,3.56,3.56,0,0,1,0,3.23l-6.53,15.37h-5.42l2.05-4.81h-7.77l-2,4.81h-5.42ZM782.54,195l2.35-5.56q.3-.69-.39-.69h-6.39a1,1,0,0,0-1,.69L774.77,195Z"/><path class="cls-2" d="M796,184h13.83a2.77,2.77,0,0,1,2.65,1.33,3.49,3.49,0,0,1-.06,3.21l-1.82,4.31a8.33,8.33,0,0,1-2.45,3.19,6.07,6.07,0,0,1-4,1.34h-.11l2.4,6.53h-6.22l-1.88-6.53h-2.63L793,203.88h-5.42Zm8.85,8.79a.5.5,0,0,0,.5-.36l1.38-3.26c.11-.24,0-.36-.19-.36h-7.17l-1.68,4Z"/><path class="cls-2" d="M827.77,199.07l-2,4.81h-16.6L817.6,184h16.59l-2.05,4.81H821l-1.33,3.13h9.93l-1.71,4h-9.93l-1.33,3.13Z"/><path class="cls-2" d="M842,203.88l6.42-15.1h-6.69l2-4.81h18.81l-2.05,4.81h-6.69l-6.42,15.1Z"/><path class="cls-2" d="M860,203.88a2.84,2.84,0,0,1-2.67-1.31,3.49,3.49,0,0,1,.07-3.22L862,188.51a8.35,8.35,0,0,1,2.41-3.23A5.45,5.45,0,0,1,868,184h10.2a2.8,2.8,0,0,1,2.66,1.31,3.54,3.54,0,0,1-.06,3.23l-4.59,10.84a8.54,8.54,0,0,1-2.42,3.22,5.38,5.38,0,0,1-3.5,1.31Zm15-14.74c.11-.24,0-.36-.2-.36H867.7a.56.56,0,0,0-.53.36l-4.06,9.57c-.09.24,0,.36.22.36h7.16a.5.5,0,0,0,.5-.36Z"/><path class="cls-2" d="M887,203.88,895.41,184h13a3.43,3.43,0,0,1,2.25.68,2.3,2.3,0,0,1,.81,1.87,5.54,5.54,0,0,1-.31,1.7,14,14,0,0,1-.82,1.89,9.9,9.9,0,0,1-1.12,1.71A5.43,5.43,0,0,1,908,193a2.89,2.89,0,0,1,.77,2.21,8.13,8.13,0,0,1-.56,2.78,11.74,11.74,0,0,1-1.54,2.82,9.73,9.73,0,0,1-2.24,2.2,4.61,4.61,0,0,1-2.68.88Zm7.46-4.81h6.33a2.05,2.05,0,0,0,1.17-.41,2.34,2.34,0,0,0,.8-1l.19-.45a1.76,1.76,0,0,0,.14-.6c0-.54-.31-.81-.91-.81h-6.34Zm3-7.11h5.39a2,2,0,0,0,1.16-.41,2.39,2.39,0,0,0,.83-1l.17-.38a1.25,1.25,0,0,0,.11-.53.8.8,0,0,0-.92-.89h-5.39Z"/><path class="cls-2" d="M927,199.07l-2.05,4.81H908.32L916.78,184h16.59l-2,4.81H920.16l-1.33,3.13h9.93l-1.72,4h-9.93l-1.32,3.13Z"/><path class="cls-3" d="M944.82,197.58l-.5,1.13c-.09.24,0,.36.22.36h6.61a.5.5,0,0,0,.5-.36l.94-2.21c.11-.24,0-.36-.19-.36h-7.86a2.81,2.81,0,0,1-2.66-1.31,3.48,3.48,0,0,1,.06-3.23l1.3-3.09a8.35,8.35,0,0,1,2.41-3.23,5.45,5.45,0,0,1,3.51-1.31h9.65a2.81,2.81,0,0,1,2.66,1.31,3.57,3.57,0,0,1-.06,3.23l-.75,1.77h-5.42l.48-1.14c.11-.24,0-.36-.2-.36h-6.61a.54.54,0,0,0-.52.36l-.94,2.22c-.09.23,0,.35.22.35h7.85a2.83,2.83,0,0,1,2.67,1.32,3.46,3.46,0,0,1-.07,3.22l-1.3,3.1a8.92,8.92,0,0,1-2.35,3.22,5.13,5.13,0,0,1-3.43,1.31h-9.79a2.84,2.84,0,0,1-2.67-1.31,3.49,3.49,0,0,1,.07-3.22l.75-1.77Z"/><path class="cls-3" d="M966.58,184H972l-6.41,15.1h9.32l-2,4.81H958.12Z"/><path class="cls-3" d="M983,184h5.42L980,203.88h-5.41Z"/><path class="cls-3" d="M998.32,199.07a.31.31,0,0,0,.31-.22l.89-2.08h5.41l-1.87,4.46a4.48,4.48,0,0,1-1.58,1.88,3.89,3.89,0,0,1-2.21.77H987.73a2.81,2.81,0,0,1-2.66-1.31,3.43,3.43,0,0,1,.07-3.22l4.59-10.84a9,9,0,0,1,2.26-3.23,4.94,4.94,0,0,1,3.38-1.31h12.36a1.62,1.62,0,0,1,1.54.78,2,2,0,0,1,0,1.88l-1.88,4.45H1002l.86-2.08c.07-.14,0-.22-.12-.22h-7.3a.54.54,0,0,0-.52.36l-4.07,9.57c-.09.24,0,.36.22.36Z"/><path class="cls-3" d="M1005.16,203.88l8.46-19.91H1019l-2.24,5.28,7.13-5.28h6.45l-9.82,7.16,1.85,12.75h-6.19l-1.05-8.85-1.22.89-3.37,8Z"/><rect class="cls-3" x="400.47" width="4.09" height="178.34"/></g></g></svg>