<svg xmlns="http://www.w3.org/2000/svg" viewBox="0 0 24.51 22.7"><defs><style>.cls-1{fill:#f8b916;}</style></defs><g id="Layer_2" data-name="Layer 2"><g id="Layer_1-2" data-name="Layer 1"><path class="cls-1" d="M24.38,3.76a1.39,1.39,0,0,0,0-1.21,1.25,1.25,0,0,0-.46-1.17L22.8.47a1.64,1.64,0,0,0-2.3,0q-4.3,4.79-9,9.19C9.2,7.5,6.86,5.37,4.54,3.23A1.6,1.6,0,0,0,2,3.61,4.26,4.26,0,0,0,.17,5.29a1.29,1.29,0,0,0,0,1.29c1.5,2.69,4.4,5.05,6.79,7.23l-1,.86C2.78,17.43.62,19.18,4.64,22a1,1,0,0,0,.16,0,1,1,0,0,0,.24.07h.08a1.93,1.93,0,0,0,.24,0c2.17-.43,4.18-2.12,6-4a22.24,22.24,0,0,0,5.75,4.42,1.38,1.38,0,0,0,1.47-.23,1.62,1.62,0,0,0,1.52-.92l.11-.07a1.64,1.64,0,0,0,.33-2.54c-1.55-1.8-3.2-3.51-4.89-5.19C18.68,10.67,22.47,7.47,24.38,3.76Z"/></g></g></svg>